<svg xmlns="http://www.w3.org/2000/svg" viewBox="0 0 320 180" font-family="system-ui,Segoe UI,Roboto,sans-serif">
  <defs><linearGradient id="bg" x1="0" y1="0" x2="1" y2="1"><stop offset="0" stop-color="#12592f"/><stop offset="1" stop-color="#0a140e"/></linearGradient></defs>
  <rect width="320" height="180" fill="url(#bg)"/>
  <g stroke="#2f5a42" stroke-width="0.6" opacity="0.4"><line x1="0" y1="70" x2="320" y2="70"/><line x1="0" y1="110" x2="320" y2="110"/><line x1="0" y1="150" x2="320" y2="150"/></g>
  <!-- padlock on a hasp -->
  <g transform="translate(250,96)">
    <rect x="-26" y="-8" width="52" height="16" rx="3" fill="#132a1e" stroke="#3f7a58" stroke-width="1.5"/>
    <circle cx="-14" cy="0" r="3" fill="#0a140e"/><circle cx="14" cy="0" r="3" fill="#0a140e"/>
    <g transform="translate(0,30)"><rect x="-16" y="0" width="32" height="24" rx="4" fill="#e11d48"/><path d="M-9,0 v-7 a9 9 0 0 1 18 0 v7" fill="none" stroke="#e11d48" stroke-width="3.5"/><circle cx="0" cy="12" r="3" fill="#0a140e"/></g>
    <!-- tag -->
    <g transform="translate(30,20) rotate(10)"><rect x="0" y="0" width="34" height="22" rx="3" fill="#facc15"/><rect x="0" y="0" width="34" height="7" fill="#dc2626"/><text x="17" y="5.8" fill="#fff" font-size="5" text-anchor="middle" font-weight="700">DANGER</text></g>
  </g>
  <rect x="0" y="0" width="320" height="4" fill="#15803D"/>
  <g transform="translate(22,26)"><rect x="0" y="4" width="14" height="10" rx="1.5" fill="none" stroke="#4ade80" stroke-width="1.6"/><path d="M2,4 v-2 a5 5 0 0 1 10 0 v2" fill="none" stroke="#4ade80" stroke-width="1.6"/></g>
  <text x="44" y="40" fill="#ffffff" font-size="24" font-weight="700">Lockout / Tagout</text>
  <text x="22" y="60" fill="#a9d9be" font-size="9" letter-spacing="1.1">OSHA 1910.147 · CONTROL OF HAZARDOUS ENERGY</text>
  <text x="22" y="150" fill="#7fae93" font-size="8.5">Bloqueo y etiquetado · Seguridad</text>
</svg>
