<svg xmlns="http://www.w3.org/2000/svg" viewBox="0 0 320 180" font-family="system-ui,Segoe UI,Roboto,sans-serif">
  <defs><linearGradient id="bg" x1="0" y1="0" x2="1" y2="1"><stop offset="0" stop-color="#12315f"/><stop offset="1" stop-color="#0a1220"/></linearGradient></defs>
  <rect width="320" height="180" fill="url(#bg)"/>
  <g stroke="#24406e" stroke-width="0.6" opacity="0.45"><line x1="0" y1="70" x2="320" y2="70"/><line x1="0" y1="110" x2="320" y2="110"/><line x1="0" y1="150" x2="320" y2="150"/></g>
  <!-- tower -->
  <g stroke="#8fb4ff" stroke-width="1.6" fill="none" stroke-linecap="round"><path d="M250 150 L266 40 L282 150"/><path d="M255 120 H277 M258 92 H274 M261 66 H271"/></g>
  <circle cx="266" cy="40" r="3" fill="#4d8bff"/>
  <!-- ground ring -->
  <path d="M226 158 Q266 172 306 158" stroke="#4ade80" stroke-width="2.2" fill="none"/>
  <g stroke="#4ade80" stroke-width="1.6"><line x1="240" y1="160" x2="240" y2="170"/><line x1="266" y1="164" x2="266" y2="174"/><line x1="292" y1="160" x2="292" y2="170"/><line x1="266" y1="150" x2="266" y2="164"/></g>
  <!-- ground symbol -->
  <g transform="translate(224,120)" stroke="#4ade80" stroke-width="1.8" stroke-linecap="round"><line x1="0" y1="-8" x2="0" y2="0"/><line x1="-7" y1="0" x2="7" y2="0"/><line x1="-4.5" y1="4" x2="4.5" y2="4"/><line x1="-2" y1="8" x2="2" y2="8"/></g>
  <rect x="0" y="0" width="320" height="4" fill="#2563EB"/>
  <g transform="translate(22,26)" stroke="#4d8bff" stroke-width="1.7" stroke-linecap="round"><line x1="7" y1="1" x2="7" y2="9"/><line x1="1" y1="9" x2="13" y2="9"/><line x1="3" y1="12.5" x2="11" y2="12.5"/><line x1="5" y1="15.5" x2="9" y2="15.5"/></g>
  <text x="42" y="40" fill="#ffffff" font-size="23" font-weight="700">Grounding &amp; Bonding</text>
  <text x="22" y="60" fill="#a9c6f0" font-size="9" letter-spacing="1.1">R56 · NEC 250 · TIA-222 · CELL SITES</text>
  <text x="22" y="150" fill="#8aa6d6" font-size="8.5">Puesta a tierra y bonding · Telecom</text>
</svg>
