<svg xmlns="http://www.w3.org/2000/svg" viewBox="0 0 320 180" font-family="system-ui,Segoe UI,Roboto,sans-serif">
  <defs><linearGradient id="bgs" x1="0" y1="0" x2="1" y2="1"><stop offset="0" stop-color="#12592f"/><stop offset="1" stop-color="#0a140e"/></linearGradient></defs>
  <rect width="320" height="180" fill="url(#bgs)"/>
  <g stroke="#2f5a42" stroke-width="0.6" opacity="0.4"><line x1="0" y1="70" x2="320" y2="70"/><line x1="0" y1="110" x2="320" y2="110"/><line x1="0" y1="150" x2="320" y2="150"/></g>
  <g stroke="#3f7a58" stroke-width="1.4" fill="none" stroke-linecap="round">
    <path d="M250 168 L266 40 L282 168"/>
    <path d="M255 130 H277 M258 100 H274 M261 74 H271"/>
  </g>
  <circle cx="266" cy="40" r="3" fill="#4ade80"/>
  <line x1="266" y1="43" x2="258" y2="86" stroke="#8fd6ac" stroke-width="1.6"/>
  <g fill="#eaf5ee"><circle cx="258" cy="86" r="3"/></g>
  <path d="M258 89 v9 M258 92 l-5 3 M258 92 l5 3 M258 98 l-4 7 M258 98 l4 7" stroke="#eaf5ee" stroke-width="1.6" fill="none" stroke-linecap="round"/>
  <rect x="0" y="0" width="320" height="4" fill="#15803D"/>
  <g transform="translate(22,26)"><path d="M0 6 A9 9 0 0 1 18 6 V10 H0 Z" fill="none" stroke="#4ade80" stroke-width="1.6"/><path d="M6 6 l2 2 4-4" fill="none" stroke="#4ade80" stroke-width="1.6" stroke-linecap="round"/></g>
  <text x="46" y="40" fill="#ffffff" font-size="25" font-weight="700">Tower Safety</text>
  <text x="22" y="60" fill="#a9d9be" font-size="9.5" letter-spacing="1.1">OSHA · CROWN CASTLE · FALL PROTECTION</text>
</svg>
