<svg xmlns="http://www.w3.org/2000/svg" viewBox="0 0 320 180" font-family="system-ui,Segoe UI,Roboto,sans-serif">
  <defs>
    <linearGradient id="bg" x1="0" y1="0" x2="1" y2="1">
      <stop offset="0" stop-color="#143a6e"/><stop offset="1" stop-color="#0a1526"/>
    </linearGradient>
  </defs>
  <rect width="320" height="180" fill="url(#bg)"/>
  <g stroke="#3a5488" stroke-width="0.6" opacity="0.45">
    <line x1="0" y1="60" x2="320" y2="60"/><line x1="0" y1="100" x2="320" y2="100"/><line x1="0" y1="140" x2="320" y2="140"/>
    <line x1="80" y1="40" x2="80" y2="160"/><line x1="160" y1="40" x2="160" y2="160"/><line x1="240" y1="40" x2="240" y2="160"/>
  </g>
  <rect x="196" y="46" width="104" height="112" fill="#dc2626" opacity="0.12"/>
  <rect x="196" y="46" width="104" height="112" fill="none" stroke="#f87171" stroke-width="0.8" stroke-dasharray="4 3" opacity="0.7"/>
  <text x="248" y="58" fill="#f4a3a3" font-size="8" text-anchor="middle" letter-spacing="1">Rx BAND</text>
  <g stroke-linecap="round">
    <line x1="70" y1="158" x2="70" y2="74" stroke="#4d8bff" stroke-width="4"/>
    <line x1="104" y1="158" x2="104" y2="74" stroke="#4d8bff" stroke-width="4"/>
    <line x1="228" y1="158" x2="228" y2="104" stroke="#f87171" stroke-width="4"/>
    <line x1="262" y1="158" x2="262" y2="124" stroke="#fbbf24" stroke-width="4"/>
  </g>
  <text x="70" y="70" fill="#9db4ff" font-size="8" text-anchor="middle">f1</text>
  <text x="104" y="70" fill="#9db4ff" font-size="8" text-anchor="middle">f2</text>
  <text x="228" y="100" fill="#f4a3a3" font-size="8" text-anchor="middle">IM3</text>
  <rect x="0" y="0" width="320" height="4" fill="#2563EB"/>
  <text x="22" y="44" fill="#ffffff" font-size="27" font-weight="700">PIM Testing</text>
  <text x="22" y="62" fill="#9db4ff" font-size="10" letter-spacing="1.5">PASSIVE INTERMODULATION · KAELUS</text>
</svg>
