<svg xmlns="http://www.w3.org/2000/svg" viewBox="0 0 320 180" font-family="system-ui,Segoe UI,Roboto,sans-serif">
  <defs>
    <linearGradient id="bg2" x1="0" y1="0" x2="1" y2="1">
      <stop offset="0" stop-color="#0f3560"/><stop offset="1" stop-color="#0a1526"/>
    </linearGradient>
  </defs>
  <rect width="320" height="180" fill="url(#bg2)"/>
  <g stroke="#3a5488" stroke-width="0.6" opacity="0.45">
    <line x1="0" y1="70" x2="320" y2="70"/><line x1="0" y1="110" x2="320" y2="110"/><line x1="0" y1="150" x2="320" y2="150"/>
    <line x1="80" y1="50" x2="80" y2="165"/><line x1="160" y1="50" x2="160" y2="165"/><line x1="240" y1="50" x2="240" y2="165"/>
  </g>
  <line x1="16" y1="132" x2="304" y2="132" stroke="#f59e0b" stroke-width="1.2" stroke-dasharray="5 3" opacity="0.85"/>
  <text x="300" y="128" fill="#f0b24a" font-size="8" text-anchor="end">limit</text>
  <polyline points="16,96 52,90 78,78 108,86 140,70 172,84 206,74 240,96 276,86 304,92"
     fill="none" stroke="#54e0c7" stroke-width="2.5" stroke-linejoin="round" stroke-linecap="round"/>
  <rect x="0" y="0" width="320" height="4" fill="#2563EB"/>
  <text x="22" y="44" fill="#ffffff" font-size="26" font-weight="700">Coax Sweep</text>
  <text x="22" y="62" fill="#9db4ff" font-size="9.5" letter-spacing="1.2">VSWR · RETURN LOSS · DTF · ANRITSU</text>
</svg>
