<svg xmlns="http://www.w3.org/2000/svg" viewBox="0 0 320 180" font-family="system-ui,Segoe UI,Roboto,sans-serif">
  <defs><linearGradient id="bgd" x1="0" y1="0" x2="1" y2="1"><stop offset="0" stop-color="#12592f"/><stop offset="1" stop-color="#0a140e"/></linearGradient></defs>
  <rect width="320" height="180" fill="url(#bgd)"/>
  <!-- perspective road -->
  <path d="M120 180 L150 66 L170 66 L200 180 Z" fill="#12261b" stroke="#2f5a42" stroke-width="0.8"/>
  <g stroke="#d7e35a" stroke-width="3" stroke-dasharray="7 9" stroke-linecap="round"><line x1="160" y1="176" x2="160" y2="70"/></g>
  <g stroke="#2f5a42" stroke-width="0.6" opacity="0.4"><line x1="0" y1="70" x2="320" y2="70"/><line x1="0" y1="150" x2="320" y2="150"/></g>
  <!-- steering wheel motif -->
  <g transform="translate(258,104)" stroke="#4ade80" stroke-width="2.2" fill="none">
    <circle cx="0" cy="0" r="30"/>
    <circle cx="0" cy="0" r="7" fill="#4ade80" stroke="none"/>
    <line x1="0" y1="-7" x2="0" y2="-30"/>
    <line x1="6" y1="4" x2="26" y2="15"/>
    <line x1="-6" y1="4" x2="-26" y2="15"/>
  </g>
  <!-- tired eye (fatigue) -->
  <g transform="translate(292,30)" stroke="#facc15" stroke-width="1.8" fill="none" stroke-linecap="round">
    <path d="M-12 0 Q0 9 12 0"/><path d="M-12 0 Q0 -9 12 0"/>
    <circle cx="0" cy="0" r="3" fill="#facc15" stroke="none"/>
    <path d="M-16 -6 l-3 -3 M0 -11 v-4 M16 -6 l3 -3"/>
  </g>
  <rect x="0" y="0" width="320" height="4" fill="#15803D"/>
  <!-- header icon: wheel -->
  <g transform="translate(22,26)" stroke="#4ade80" stroke-width="1.6" fill="none"><circle cx="7" cy="7" r="7"/><circle cx="7" cy="7" r="2"/><path d="M7 5V2M7 12v-3M3 9l1.4-1.4M10.6 9 9 7.6"/></g>
  <text x="44" y="40" fill="#ffffff" font-size="23" font-weight="700">Defensive Driving</text>
  <text x="22" y="60" fill="#a9d9be" font-size="9" letter-spacing="1.1">FATIGUE · DISTRACTION · REAL NTSB CASES</text>
  <text x="22" y="150" fill="#7fae93" font-size="8.5">Manejo defensivo y fatiga · Seguridad</text>
</svg>
