<svg xmlns="http://www.w3.org/2000/svg" viewBox="0 0 1200 675" width="1200" height="675" role="img" aria-label="Arc Flash & NFPA 70E">
  <defs>
    <linearGradient id="bg" x1="0" y1="0" x2="1" y2="1">
      <stop offset="0" stop-color="#0b3a22"/>
      <stop offset="0.55" stop-color="#0a2417"/>
      <stop offset="1" stop-color="#08140d"/>
    </linearGradient>
    <radialGradient id="glow" cx="0.28" cy="0.42" r="0.6">
      <stop offset="0" stop-color="#15803D" stop-opacity="0.55"/>
      <stop offset="1" stop-color="#15803D" stop-opacity="0"/>
    </radialGradient>
    <linearGradient id="bolt" x1="0" y1="0" x2="0" y2="1">
      <stop offset="0" stop-color="#eafff2"/>
      <stop offset="0.5" stop-color="#4ade80"/>
      <stop offset="1" stop-color="#15803D"/>
    </linearGradient>
  </defs>
  <rect width="1200" height="675" fill="url(#bg)"/>
  <rect width="1200" height="675" fill="url(#glow)"/>
  <g stroke="#15803D" stroke-opacity="0.22" fill="none">
    <circle cx="340" cy="300" r="150"/>
    <circle cx="340" cy="300" r="230"/>
    <circle cx="340" cy="300" r="320"/>
  </g>
  <g transform="translate(268,168)">
    <circle cx="72" cy="132" r="150" fill="#0a1310" stroke="#15803D" stroke-opacity="0.5" stroke-width="3"/>
    <path d="M96 30 L24 156 h56 l-12 108 96 -150 h-58 z" fill="url(#bolt)" stroke="#eafff2" stroke-width="3" stroke-linejoin="round"/>
  </g>
  <g transform="translate(560,300)" fill="#eafff2" font-family="system-ui,-apple-system,Segoe UI,Roboto,Arial,sans-serif">
    <text x="0" y="-96" font-size="30" letter-spacing="6" fill="#4ade80" font-weight="700">SAFETY · SEGURIDAD</text>
    <text x="0" y="-16" font-size="108" font-weight="800" letter-spacing="1">ARC FLASH</text>
    <text x="0" y="58" font-size="46" font-weight="600" fill="#a3c2b1">Arco eléctrico · NFPA 70E</text>
    <g transform="translate(0,120)" font-size="26" font-weight="600">
      <rect x="0" y="-30" width="250" height="46" rx="23" fill="#15803D" fill-opacity="0.18" stroke="#15803D" stroke-opacity="0.6"/>
      <text x="24" y="1" fill="#8fd6ac">NFPA 70E-2024 · IEEE 1584</text>
    </g>
  </g>
  <text x="1140" y="632" text-anchor="end" font-family="ui-monospace,monospace" font-size="24" fill="#4f6a5b">1.2 cal/cm² · boundaries · PPE · LOTO</text>
</svg>
